<svg xmlns="http://www.w3.org/2000/svg" xmlns:xlink="http://www.w3.org/1999/xlink" width="995.153" height="760.398" viewBox="0 0 995.153 760.398"><defs><clipPath id="a"><rect width="970.373" height="726.976" transform="translate(1107 314)" fill="#fff" stroke="#707070" stroke-width="1"/></clipPath></defs><g transform="matrix(0.999, 0.035, -0.035, 0.999, -1069.996, -352.442)" clip-path="url(#a)"><g transform="translate(1276.711 315.286)"><ellipse cx="315.476" cy="267.636" rx="315.476" ry="267.636" transform="translate(0 119.177)" fill="#e6e6e6" opacity="0.24"/><path d="M332.7,259.928s72.229-12.395,186.126-190.664l39.945,370.514s-122.75-90.978-206.43-54.785C352.336,384.992,307.011,328.286,332.7,259.928Z" transform="translate(-73.412 -42.769)" fill="#2b2d42"/><path d="M92.619-.449c50.078-.848,89.4,85.932,87.835,193.83s-43.436,196.053-93.514,196.9S-2.464,304.349-.9,196.452,42.541.4,92.619-.449Z" transform="matrix(0.995, -0.101, 0.101, 0.995, 384.932, 19.179)" fill="#24285b"/><path d="M283.787,269.188s-8.535,48.557,32.921,56.521,89.485,131.262,89.485,131.262l51.21-36.534s-88.027-138.637-61.521-168.6Z" transform="translate(-92.041 83.322)" fill="#2b2d42"/><path d="M283.787,269.188s-8.535,48.557,32.921,56.521,89.485,131.262,89.485,131.262l51.21-36.534s-88.027-138.637-61.521-168.6Z" transform="translate(-92.041 83.322)" fill="#fff" opacity="0.46"/><path d="M446.619,289.449l80.817-31.762-9.622-110.655-88.425,6.693S422.286,214.77,446.619,289.449Z" transform="translate(-27.185 10.941)" fill="#2b2d42"/><path d="M446.619,289.449l80.817-31.762-9.622-110.655-88.425,6.693S422.286,214.77,446.619,289.449Z" transform="translate(-27.185 10.941)" opacity="0.18"/><path d="M26.335-.128c14.239-.241,25.42,24.43,24.975,55.1s-12.35,55.736-26.589,55.977S-.7,86.523-.255,55.849,12.1.113,26.335-.128Z" transform="matrix(0.995, -0.101, 0.101, 0.995, 464.466, 160.774)" fill="#2b2d42"/><path d="M375.428,180.556s-119.278,33.094-125.957,62.47,14.26,96.06,43.894,94.852,90.969-32.629,90.969-32.629S353.8,237.014,375.428,180.556Z" transform="translate(-107.584 34.093)" fill="#24285b"/><path d="M177.861,518.572,363.7,343.681l57.677,53.7L323.486,572.49Z" transform="translate(-138.977 146.754)" fill="#f4a28c"/><path d="M372.113,285.328c15.7-1.544,30.417,9.065,36.287,26.153,10.6,29.779,10.2,49.208-17.733,59.96S356,294.872,356,294.872Z" transform="translate(-59.499 106.351)" fill="#d68676"/><path d="M349.014,255.62l22.742,57.3,24.015-15.865c5.935-3.831,8.44-12.281,5.8-19.584L392.4,251.654S366.455,246.758,349.014,255.62Z" transform="translate(-62.615 82.265)" fill="#24285b"/><path d="M303.174,396.4s8.668-95.843,38.222-107.309,65.6,12.395,48.321,38.052-39.282-2.386-39.282-2.386L384.522,404.4l-19.058,32.722Z" transform="translate(-83.067 107.015)" fill="#f4a28c"/><path d="M366.664,263.9a9.7,9.7,0,0,1,12.962,0c4.506,3.811,9.463,10.35,7.289,19.553-3.737,15.834-27.407,36.782-37.109,28.26C341.642,304.527,353.49,275.244,366.664,263.9Z" transform="translate(-63.46 89.941)" fill="#f4a28c"/><path d="M163.583,506.86,336.35,573.328,422.1,426.7,331.42,351.8Z" transform="translate(-145.347 152.362)" fill="#ffd200"/><path d="M358.5,380.7,235.56,526.933l68.677,26.432,85.747-146.631Z" transform="translate(-113.234 172.324)" opacity="0.06"/></g></g></svg>