<svg height="512" viewBox="0 0 512 512" width="512" xmlns="http://www.w3.org/2000/svg"><g><g><g><rect fill="#2488ff" height="480" rx="32" width="256" x="112" y="4"/><path d="m280 36h-80l-8-32h96z" fill="#57565c"/></g><g><path d="m264 116h80a0 0 0 0 1 0 0v96a0 0 0 0 1 0 0h-80a32 32 0 0 1 -32-32v-32a32 32 0 0 1 32-32z" fill="#e0e0e2"/><path d="m408 236-64-24v-96l64-24z" fill="#57565c"/><rect fill="#ff9811" height="176" rx="16" width="32" x="408" y="76"/><path d="m296 268h-24l-8-56h24z" fill="#57565c"/></g><path d="m216 276v96h-16v32l-32-32h-96v-96z" fill="#ff9811"/></g><g><path d="m201 452h-56a8 8 0 0 0 0 16h56a8 8 0 0 0 0-16z"/><path d="m232 452h-8a8 8 0 0 0 0 16h8a8 8 0 0 0 0-16z"/><path d="m424 68a24.036 24.036 0 0 0 -23.28 18.19l-24.72 9.27v-59.46a40.04 40.04 0 0 0 -40-40h-192a40.04 40.04 0 0 0 -40 40v232h-32a8 8 0 0 0 -8 8v96a8 8 0 0 0 8 8h32v72a40.04 40.04 0 0 0 40 40h192a40.04 40.04 0 0 0 40-40v-219.46l24.72 9.27a24 24 0 0 0 47.28-5.81v-144a24.032 24.032 0 0 0 -24-24zm-146.25-56-4 16h-67.5l-4-16zm-197.75 352v-80h128v80h-8a8 8 0 0 0 -8 8v12.69l-18.34-18.35a8.008 8.008 0 0 0 -5.66-2.34zm280 88a24.032 24.032 0 0 1 -24 24h-192a24.032 24.032 0 0 1 -24-24v-72h44.69l29.65 29.66a8 8 0 0 0 13.66-5.66v-24h8a8 8 0 0 0 8-8v-96a8 8 0 0 0 -8-8h-96v-232a24.032 24.032 0 0 1 24-24h41.76l6.48 25.94a8 8 0 0 0 7.76 6.06h80a8 8 0 0 0 7.76-6.06l6.49-25.94h41.75a24.032 24.032 0 0 1 24 24v65.46l-17.45 6.54h-78.55a40.04 40.04 0 0 0 -40 40v32a40.058 40.058 0 0 0 32.97 39.38l7.11 49.75a8 8 0 0 0 7.92 6.87h24a8.008 8.008 0 0 0 7.92-9.13l-6.7-46.87h45.33l17.45 6.54zm-96-248a24.032 24.032 0 0 1 -24-24v-32a24.032 24.032 0 0 1 24-24h72v80zm22.78 56h-7.84l-5.72-40h7.84zm113.22-35.54-48-18v-84.92l48-18zm32 11.54a8 8 0 0 1 -16 0v-144a8 8 0 0 1 16 0z"/><circle cx="144" cy="324" r="8"/><circle cx="112" cy="324" r="8"/><circle cx="176" cy="324" r="8"/></g></g></svg>