<svg xmlns="http://www.w3.org/2000/svg" xmlns:xlink="http://www.w3.org/1999/xlink" width="1134" height="796" viewBox="0 0 1134 796"><defs><clipPath id="clip-path"><rect id="Rectángulo_83" width="1134" height="796" fill="#fff" stroke="#707070" stroke-width="1" data-name="Rectángulo 83" transform="translate(433 230)"/></clipPath><linearGradient id="linear-gradient" x1="-.87" x2="2.099" y1="-.235" y2="1.225" gradientUnits="objectBoundingBox"><stop offset="0" stop-opacity="0"/><stop offset=".99"/></linearGradient><linearGradient id="linear-gradient-2" x1="1.245" x2="-2.229" y1=".313" y2="1.275" xlink:href="#linear-gradient"/><linearGradient id="linear-gradient-3" x1="1.46" x2="-1.149" y1="1.178" y2="-.776" xlink:href="#linear-gradient"/><linearGradient id="linear-gradient-4" x1="1.366" x2="-1.568" y1=".529" y2=".431" xlink:href="#linear-gradient"/><linearGradient id="linear-gradient-5" x1="1.438" x2="-1.918" y1="-.125" y2="2.247" xlink:href="#linear-gradient"/><linearGradient id="linear-gradient-6" x1=".615" x2=".158" y1="1.191" y2="-.514" xlink:href="#linear-gradient"/><linearGradient id="linear-gradient-7" x1=".168" x2="1.264" y1=".536" y2=".337" xlink:href="#linear-gradient"/><linearGradient id="linear-gradient-8" x1="-.048" x2="1.75" y1="-.164" y2="1.869" xlink:href="#linear-gradient"/></defs><g id="_404" clip-path="url(#clip-path)" data-name="404" transform="translate(-433 -230)"><g id="_404_Page_Not_Found__Monochromatic" data-name="404 Page Not Found _Monochromatic" transform="translate(433 309.168)"><path id="Trazado_74" fill="#2b2d42" d="M65.358,636.18C27.592,602.509,4.119,551.81.864,496.881s14.02-108.84,47.464-148.124C73.05,319.993,105,301.5,132.426,276.6c47.419-42.8,82.532-104.628,135.43-137.314C331.549,99.9,408.738,110.3,478.693,129.945s140.234,47.784,211.971,40.687c42.723-4.265,83.854-20.95,126.173-29.075s88.739-6.662,124.149,21.791c51.549,41.683,63.8,125.921,106.093,180.242,20.484,26.336,47.689,45.076,65.826,73.716,29.175,46.041,28.419,115.181-1.754,160.35-38.648,57.746-108.387,66.9-164.632,98.651-31.307,17.682-59.375,43.177-91.762,57.995-68.066,31.13-144.633,10.864-214.427-14.289S498.638,664.6,426.388,676.929c-67.472,11.58-128.278,59.614-196.317,66.9-31.577,3.393-67.634-3.113-86.931-34.554C122.386,675.559,93.454,661.084,65.358,636.18Z" data-name="Trazado 74" opacity=".18" transform="translate(-0.475 -112.479)"/><path id="Trazado_75" fill="#2b2d42" d="M54.838,406.56c18.325-23.5,18.325-23.5,39.107-51.707l88.443-119.383c19.567-25.869,27.313-37.6,37.784-56.034h83.666a778.341,778.341,0,0,0-3.266,78.012V410.326h11.821a248.64,248.64,0,0,0,40.483-3.767V492.1a282.892,282.892,0,0,0-39.944-2.8H300.706v23.5a377.885,377.885,0,0,0,3.266,57.808h-84.1a469.488,469.488,0,0,0,3.266-58.742V488.836H107.817c-26.5,0-37.784.467-52.979,1.868Zm168.707-49.808c0-21.168.81-47.006,2.456-67.708-8.1,13.168-14.277,22.569-25.262,38.539l-59.51,83.677h82.316Z" data-name="Trazado 75" transform="translate(28.344 -61.265)"/><path id="Trazado_76" fill="url(#linear-gradient)" d="M54.838,406.56c18.325-23.5,18.325-23.5,39.107-51.707l88.443-119.383c19.567-25.869,27.313-37.6,37.784-56.034h83.666a778.341,778.341,0,0,0-3.266,78.012V410.326h11.821a248.64,248.64,0,0,0,40.483-3.767V492.1a282.892,282.892,0,0,0-39.944-2.8H300.706v23.5a377.885,377.885,0,0,0,3.266,57.808h-84.1a469.488,469.488,0,0,0,3.266-58.742V488.836H107.817c-26.5,0-37.784.467-52.979,1.868Zm168.707-49.808c0-21.168.81-47.006,2.456-67.708-8.1,13.168-14.277,22.569-25.262,38.539l-59.51,83.677h82.316Z" data-name="Trazado 76" transform="translate(28.344 -61.265)"/><path id="Trazado_77" fill="#2b2d42" d="M369.587,241.546c8.1,1.556,15.626,7.284,23.75,9.339,7.1,1.868,14.574.9,21.591,3.767,13.09,5.354,21.591,23.565,23.453,41.839s-1.457,36.764-5.236,54.508c-9.932,46.757-23.426,93.452-47.716,128.909-1.7,2.459-3.751,5.043-6.261,4.981a8.247,8.247,0,0,1-4.669-2.521,82.619,82.619,0,0,1-13.9-14.04c-6.477-9-10.229-20.857-13.495-32.624-9.2-33.122-26.773-54.1-30.039-89.218C313.5,309.658,330.966,234.2,369.587,241.546Z" data-name="Trazado 77" transform="translate(167.116 -14.14)"/><path id="Trazado_78" fill="url(#linear-gradient-2)" d="M342.383,254.814a12.932,12.932,0,0,0-10.013,2.086,31.676,31.676,0,0,0-12.388,20.359,90.581,90.581,0,0,0-.783,25.5,392.256,392.256,0,0,0,12.5,73.4c1.889,6.911-3.509,23.316.4,28.982,3.185,4.607,1.592,32.282,5.749,35.706,11.524,9.588,35.463,4.3,46.988,13.884,14.925,12.452,13.926-20.421,11.551-33.963-2.7-15.1-22.967-12.452-38.486-63.443C337.256,289.462,347.673,256.215,342.383,254.814Z" data-name="Trazado 78" transform="translate(168.194 -3.812)"/><path id="Trazado_79" fill="#2b2d42" d="M466.077,405.585c18.325-23.5,18.325-23.5,39.107-51.707l88.443-119.414a466.936,466.936,0,0,0,37.784-56.034h83.666a778.315,778.315,0,0,0-3.266,78.043V409.259h11.821a252.184,252.184,0,0,0,40.349-3.767v85.545a278.35,278.35,0,0,0-39.943-2.833H711.811v23.5a377.386,377.386,0,0,0,3.265,57.808H631.114a469.5,469.5,0,0,0,3.266-58.493V487.986H519.057c-26.5,0-37.919.467-52.979,1.9Zm168.707-49.808c0-21.168.81-47.006,2.429-67.676-8.1,13.137-14.25,22.538-25.261,38.539l-59.376,83.677h82.316Z" data-name="Trazado 79" transform="translate(246.35 -62.034)"/><path id="Trazado_80" fill="url(#linear-gradient-3)" d="M466.077,405.585c18.325-23.5,18.325-23.5,39.107-51.707l88.443-119.414a466.936,466.936,0,0,0,37.784-56.034h83.666a778.315,778.315,0,0,0-3.266,78.043V409.259h11.821a252.184,252.184,0,0,0,40.349-3.767v85.545a278.35,278.35,0,0,0-39.943-2.833H711.811v23.5a377.386,377.386,0,0,0,3.265,57.808H631.114a469.5,469.5,0,0,0,3.266-58.493V487.986H519.057c-26.5,0-37.919.467-52.979,1.9Zm168.707-49.808c0-21.168.81-47.006,2.429-67.676-8.1,13.137-14.25,22.538-25.261,38.539l-59.376,83.677h82.316Z" data-name="Trazado 80" transform="translate(246.35 -62.034)"/><path id="Trazado_81" fill="#2b2d42" d="M309.528,537.011a152.016,152.016,0,0,1-29.688-52.2,355.853,355.853,0,0,1-15.9-107.647c0-49.341,10.2-100.581,25.693-130.185C314.494,199,356.866,172.7,408.226,172.7c39.539,0,74.165,15.565,99.022,43.582a151.875,151.875,0,0,1,29.688,52.174,356.889,356.889,0,0,1,15.869,108.114c0,49.372-10.175,101.079-25.666,130.746-24.452,47.068-67.229,73.467-118.994,73.467C368.2,580.78,334.384,565.651,309.528,537.011Zm37.784-163.588c0,84.051,20.781,127.384,61.13,127.384s60.32-42.306,60.32-125.983c0-80.377-21.186-122.683-60.725-122.683-38.189,0-60.617,44.64-60.617,121.282Z" data-name="Trazado 81" transform="translate(139.191 -66.418)"/><path id="Trazado_82" fill="url(#linear-gradient-4)" d="M309.528,537.011a152.016,152.016,0,0,1-29.688-52.2,355.853,355.853,0,0,1-15.9-107.647c0-49.341,10.2-100.581,25.693-130.185C314.494,199,356.866,172.7,408.226,172.7c39.539,0,74.165,15.565,99.022,43.582a151.875,151.875,0,0,1,29.688,52.174,356.889,356.889,0,0,1,15.869,108.114c0,49.372-10.175,101.079-25.666,130.746-24.452,47.068-67.229,73.467-118.994,73.467C368.2,580.78,334.384,565.651,309.528,537.011Zm37.784-163.588c0,84.051,20.781,127.384,61.13,127.384s60.32-42.306,60.32-125.983c0-80.377-21.186-122.683-60.725-122.683-38.189,0-60.617,44.64-60.617,121.282Z" data-name="Trazado 82" transform="translate(139.191 -66.418)"/><path id="Trazado_83" fill="#2b2d42" d="M60.817,405.585c18.352-23.5,18.352-23.5,39.134-51.707l88.443-119.414a466.937,466.937,0,0,0,37.784-56.034h83.665a778.375,778.375,0,0,0-3.266,78.043V409.259H318.4a252.183,252.183,0,0,0,40.483-3.767v85.545a278.34,278.34,0,0,0-39.943-2.833H306.713v23.5a377.379,377.379,0,0,0,3.266,57.808h-84.1a469.507,469.507,0,0,0,3.266-58.493V487.986H113.8c-26.476,0-37.784.467-52.979,1.9Zm168.734-49.808c0-21.168.81-47.006,2.429-67.676-8.1,13.137-14.25,22.538-25.262,38.539l-59.376,83.677h82.208Z" data-name="Trazado 83" transform="translate(31.514 -62.034)"/><path id="Trazado_84" fill="#2b2d42" d="M315.535,537.986a151.939,151.939,0,0,1-29.688-52.174A355.813,355.813,0,0,1,269.87,378.164c0-49.341,10.2-100.581,25.693-130.216,24.857-47.94,67.229-74.245,118.589-74.245,39.512,0,74.165,15.565,99.022,43.582a151.492,151.492,0,0,1,29.688,52.174,355.873,355.873,0,0,1,15.977,108.208c0,49.341-10.175,101.079-25.666,130.746-24.452,47.006-67.256,73.311-118.994,73.311C374.235,581.692,340.418,566.656,315.535,537.986Zm38-163.432c0,84.051,20.781,127.384,61.13,127.384,39.944,0,60.32-42.306,60.32-125.952,0-80.409-21.213-122.714-60.725-122.714C375.855,253.147,353.535,297.787,353.535,374.553Z" data-name="Trazado 84" transform="translate(142.334 -65.649)"/><path id="Trazado_85" fill="url(#linear-gradient-5)" d="M417.451,194.816c6.209,5.219,9.093,14.229,7.314,22.849,10.284,1.133,19.749,6.961,26.287,16.188a64.041,64.041,0,0,1,10.121,30.414,184.05,184.05,0,0,1-.621,32.935,38.821,38.821,0,0,1-2,11.02c-2.827,6.185-7.907,10.583-13.845,11.985a51.841,51.841,0,0,1-17.813.965l-14.169-.872a2.6,2.6,0,0,1-1.349-.342,3.313,3.313,0,0,1-.945-2.241c-.972-6.693-2.456-9.619-3.509-16.312a112.763,112.763,0,0,0-15.114-39.193,15.613,15.613,0,0,1-2.7-6.07,18.572,18.572,0,0,1,1.727-8.9,136.2,136.2,0,0,0,4.75-16.468,195.742,195.742,0,0,1,4.453-19.861,28.845,28.845,0,0,1,10.8-15.814" data-name="Trazado 85" transform="translate(205.536 -49.5)"/><path id="Trazado_86" fill="url(#linear-gradient-6)" d="M403.3,354.847s51.873,5.292,75.569-31.13c9.446-14.444-11.605-82.494-11.605-82.494l-23.939,49.434-37.784,9.9Z" data-name="Trazado 86" transform="translate(213.072 -14.004)"/><path id="Trazado_87" fill="#2b2d42" d="M472.568,405.585c18.326-23.5,18.326-23.5,39.107-51.707l88.443-119.414c19.567-25.838,27.313-37.605,37.784-56.034h83.665a778.41,778.41,0,0,0-3.185,78.136V409.352H730.2a252.191,252.191,0,0,0,40.348-3.767V491.13a278.351,278.351,0,0,0-39.944-2.833H718.383v23.5a377.365,377.365,0,0,0,3.266,57.808H637.605a469.526,469.526,0,0,0,3.266-58.586V487.986H525.548c-26.5,0-37.919.467-52.979,1.9Zm168.708-49.808c0-21.168.81-47.006,2.456-67.676-8.1,13.137-14.277,22.538-25.262,38.539l-59.51,83.677h82.316Z" data-name="Trazado 87" transform="translate(249.791 -62.034)"/><path id="Trazado_88" fill="#f7af87" d="M326.521,245.8a25.917,25.917,0,0,0-4.048,2.148,9.789,9.789,0,0,0-3.131,2.957,5.2,5.2,0,0,0-.54,4.452,4.759,4.759,0,0,0,5.209,2.521c3.32-.374,6.4-2.272,9.716-2.926s6.45-3.3,4.1-7.378S329.841,244.365,326.521,245.8Z" data-name="Trazado 88" transform="translate(168.133 -11.418)"/><path id="Trazado_89" fill="#f7af87" d="M336.911,250.654c-4.858-1.463-9.932,1-14.3,3.829a8.72,8.72,0,0,0-2.7,2.4,3.423,3.423,0,0,0-.835,3.56,2.707,2.707,0,0,0,2.7,1.981,7.966,7.966,0,0,0,2.969-.218l6.72-1.339a12.993,12.993,0,0,0,4.507-1.494C339.016,257.316,341.607,251.993,336.911,250.654Z" data-name="Trazado 89" transform="translate(168.323 -7.123)"/><path id="Trazado_90" fill="#f7af87" d="M327.311,256.8a29.04,29.04,0,0,0-4.048,2.179,9.9,9.9,0,0,0-3.131,3.113,5.232,5.232,0,0,0-.54,4.42,4.759,4.759,0,0,0,5.209,2.522c3.32-.374,6.4-2.273,9.716-2.926s6.45-3.269,4.1-7.378S330.577,255.365,327.311,256.8Z" data-name="Trazado 90" transform="translate(168.557 -2.961)"/><path id="Trazado_91" fill="#f7af87" d="M337.1,260.767c-4.993-.467-9.608,3.113-13.494,6.662a9.828,9.828,0,0,0-2.348,2.957,3.5,3.5,0,0,0-.243,3.656,2.557,2.557,0,0,0,2.942,1.387,7.954,7.954,0,0,0,2.861-.809l6.4-2.708a13.729,13.729,0,0,0,4.237-2.4C340.126,266.962,341.934,261.3,337.1,260.767Z" data-name="Trazado 91" transform="translate(169.238 0.913)"/><path id="Trazado_92" fill="#f7af87" d="M435.9,213.6a48.348,48.348,0,0,0-25.235-6.07,9.272,9.272,0,0,0-4.318.809,4.425,4.425,0,0,0-2.267,3.985A6.19,6.19,0,0,0,406.13,216a46.191,46.191,0,0,0,10.634,8.343,9.449,9.449,0,0,1,3.131,2.335,3.688,3.688,0,0,1,.459,3.953c-.891,1.432-2.942,1.494-3.617,3.113-.891,2.023,1.349,4.016,3.293,4.389a10.466,10.466,0,0,0,6.154-.654,10.335,10.335,0,0,1,4.426-1.432,10.189,10.189,0,0,1,4.21,2.21c4.264,2.8,17.516,2.9,16.679-5.635C450.715,224.715,441.35,216.87,435.9,213.6Z" data-name="Trazado 92" transform="translate(213.483 -39.801)"/><path id="Trazado_93" fill="#2b2d42" d="M382.26,272.919s59.672,28.359,66.5,26.9-4.21-69.389-4.21-69.389l20.35-10.74s45.881,104.908,8.313,120.162a95.514,95.514,0,0,1-71.467-.872Z" data-name="Trazado 93" transform="translate(201.917 -30.477)"/><path id="Trazado_94" fill="#f7af87" d="M426.574,248.322a52.442,52.442,0,0,1-3.671,17.62c-4.392,8.367-11.939,13.867-20.377,14.849a52.924,52.924,0,0,0-9.014,1.463,8.926,8.926,0,0,0-6.18,5.946c-2.4,6.724-4.885,13.542-12.631,11.269a8.88,8.88,0,0,1-2.105-.84,21.288,21.288,0,0,1-6.45-5.448,44.682,44.682,0,0,1-5.884-8.841,14.133,14.133,0,0,1-1.673-4.919,18.387,18.387,0,0,1,.648-6.382c2.7-12.452,3.131-26.554,6.963-38.695,3.923-12.307,11.419-22.668,21.213-29.324,9.689-6.506,23.156-6.6,31.388,2.272a34.893,34.893,0,0,1,8.1,19.3,104.456,104.456,0,0,1-.324,21.729Z" data-name="Trazado 94" transform="translate(189.342 -45.259)"/><path id="Trazado_95" fill="#606060" d="M360.581,239.641c.513-5.852.486-11.8,1.484-17.557a26.153,26.153,0,0,1,7.206-15.16,11.675,11.675,0,0,1,3.239-2.117c1.053-.436,2.159-.685,3.239-1.027a40.577,40.577,0,0,0,9.014-5.168,41.2,41.2,0,0,1,13.818-6.226,53.369,53.369,0,0,1,9.959-.809q9.176-.187,18.433-.187a8,8,0,0,1,4.237.809,7.863,7.863,0,0,1,3,4.607,25.168,25.168,0,0,1,0,13.2,68.1,68.1,0,0,1-4.723,12.2,21.594,21.594,0,0,1-3.94,6.506c-1.43-2.864-2.7-5.821-3.994-8.81-4.129,4.95-10.634,6.226-16.571,5.7s-11.767-2.3-17.7-2.4a9.83,9.83,0,0,0-7.935,2.708,15.26,15.26,0,0,0-2.7,6.226q-1.873,7.686-3.05,15.565c-.7-1.525-3.536-5.51-5.02-5.448a3.054,3.054,0,0,0-2.186,1.4c-2.456,3.113-1.242,14.538,1.026,17.837a4.615,4.615,0,0,1,1,1.806,3.873,3.873,0,0,1-.648,2.584,5.659,5.659,0,0,1-5.128,2.428c-2.375,0-2.834-5.23-3.077-7.16C358.556,253.961,359.987,246.707,360.581,239.641Z" data-name="Trazado 95" transform="translate(189.698 -52.144)"/><path id="Trazado_96" fill="url(#linear-gradient-7)" d="M367.64,229.242a5.893,5.893,0,0,1-.432-2.584,8.641,8.641,0,0,0-.243-2.646,3.3,3.3,0,0,0-1.376-1.837.9.9,0,0,0-.567,0,1.19,1.19,0,0,0-.621.872,17.817,17.817,0,0,0,.3,10.429,3.993,3.993,0,0,0,2.078,2.677,2.478,2.478,0,0,0,2.456-.872,4.274,4.274,0,0,0,.7-3.954C369.476,230.083,368.207,230.363,367.64,229.242Z" data-name="Trazado 96" transform="translate(192.111 -28.608)"/><path id="Trazado_97" fill="url(#linear-gradient-8)" d="M389.348,247.387a8.926,8.926,0,0,0-6.18,5.946c-2.4,6.724-4.885,13.542-12.631,11.269a8.88,8.88,0,0,1-2.105-.84,7.223,7.223,0,0,1-1.565-2.335,9.558,9.558,0,0,1,.216-6.537c1.912-5.345,6.378-8.885,11.389-9.028a31.761,31.761,0,0,1,6.126.934c1.242.187,2.7,0,3.832.156a2.189,2.189,0,0,1,.918.436Z" data-name="Trazado 97" transform="translate(193.505 -10.456)"/></g></g></svg>