<svg xmlns="http://www.w3.org/2000/svg" xmlns:xlink="http://www.w3.org/1999/xlink" width="514.558" height="489.061" viewBox="0 0 514.558 489.061"><defs><clipPath id="clip-path"><rect id="Rectángulo_82" width="514.558" height="489.061" fill="#fff" stroke="#707070" stroke-width="1" data-name="Rectángulo 82" transform="translate(0 0)"/></clipPath></defs><g id="Enmascarar_grupo_8" clip-path="url(#clip-path)" data-name="Enmascarar grupo 8"><g id="cat-black-face" transform="translate(0.017 29.483)"><path id="Trazado_73" fill="#fff" d="M127.063,402.143c38.091,17.948,80.834,27.312,123.574,28.1l6.771,0c43.164.011,85.9-8.555,124.828-25.7,35.538-15.586,67.7-38.969,91.389-68.2a182.178,182.178,0,0,0,41.009-115.395c-.008-26.511-.016-52.632-.024-79.144-.009-28.85-.017-57.311-.026-86.161,0-10.137-.006-20.273-.009-30.02C514.571,7.3,494.683-4.789,476.484,1.834L380.012,38.846a29.076,29.076,0,0,1-19.889.385C328.8,27.917,294.1,22.06,257.287,22.05A312.26,312.26,0,0,0,154.461,39.177a29.078,29.078,0,0,1-19.889-.4L38.078,2.893C19.88-4.129-.005,8.341,0,26.665L.012,67.991l.026,85.771.021,72.126c.011,38.6,13.564,76.028,37.694,107.224C60.613,362.359,91.935,385.759,127.063,402.143ZM351.291,221.692c23.274.006,42.322,17.555,42.329,39s-19.031,38.982-42.306,38.976-42.322-17.555-42.329-39C308.978,238.839,328.016,221.686,351.291,221.692ZM163.4,221.643c23.274.006,42.322,17.555,42.329,39s-19.031,38.982-42.306,38.976-42.322-17.555-42.329-39C121.09,238.79,140.128,221.637,163.4,221.643Z" data-name="Trazado 73" transform="translate(0 0)"/></g></g></svg>