<svg xmlns="http://www.w3.org/2000/svg" xmlns:xlink="http://www.w3.org/1999/xlink" width="969" height="807" viewBox="0 0 969 807"><defs><clipPath id="a"><rect width="969" height="807" fill="#fff" stroke="#707070" stroke-width="1" transform="translate(1385.512 752.865)"/></clipPath></defs><g clip-path="url(#a)" transform="translate(-1385.512 -752.865)"><g transform="translate(1386 805.598)"><rect width="593.655" height="409.6" fill="#f2f2f2" transform="translate(193.544 111.3)"/><path fill="#c9c9c9" d="M379.4,345.024,356.867,497.133h150.39L472.672,345.024Z" transform="translate(66.108 129.086)"/><ellipse cx="484.027" cy="40.359" fill="#e6e6e6" opacity=".24" rx="484.027" ry="40.359" transform="translate(0 620.848)"/><rect width="211.503" height="48.881" fill="#e6e6e6" transform="translate(388.663 599.559)"/><rect width="593.655" height="79.077" fill="#e6e6e6" transform="translate(193.544 441.823)"/><ellipse cx="20.29" cy="21.546" fill="#a5a5a5" rx="20.29" ry="21.546" transform="translate(476.517 459.831)"/><path fill="#f4a28c" d="M390.655,110.042a110.713,110.713,0,0,0,2.3,28.01,7.959,7.959,0,0,0,9.994,5.724,18.362,18.362,0,0,0,13.234-14.7l4.24-14.954a15.567,15.567,0,0,0-6.9-16.079C404.343,91.679,390.625,99.719,390.655,110.042Z" transform="translate(84.014 -27.073)"/><path fill="#f4a28c" d="M415.978,108.721l10.206,54.412-28.648,3.795,4.088-41.1Z" transform="translate(87.733 -18.967)"/><path fill="#f4a28c" d="M402,115.424s0-6.432,4.512-6.207,4.845,9.647-1.393,10.87Z" transform="translate(90.109 -18.66)"/><path fill="#f4a28c" d="M392.247,111.113l-4.209,6.689a2.844,2.844,0,0,0-.211,2.606,2.568,2.568,0,0,0,1.968,1.574l6.057,1Z" transform="translate(82.453 -17.468)"/><path d="M431.241,121.967H471.4S529.754,170.2,548.288,240.02c15.142,56.727,12.3,107.505-9.085,140.821a82.228,82.228,0,0,0-10.872,58.978l2.271,12.67h-106.3Z" opacity=".08" transform="translate(101.968 -10.668)"/><path fill="#f4a28c" d="M461.348,145.337s-40.792,0-47.546,34.249-3.876,119.886-29.951,123.263-71.47-105.479-71.47-105.479-19.321-18.33-31.859-10.13,18.352,25.727,18.352,25.727S322.92,422.187,443.692,329.893,461.348,145.337,461.348,145.337Z" transform="translate(23.921 3.974)"/><path fill="#ce8172" d="M399.753,127.233a19.052,19.052,0,0,0,9.085-6.432s0,10.162-10.175,20.581Z" opacity=".31" transform="translate(88.332 -11.398)"/><path fill="#2b2d42" d="M423.91,146l28.649-3.827s71.137,1.447,75.256,84.641-18.534,78.82-26.8,151.144H388.448s4.331-45.022-9.085-75.54S295.264,249.067,423.91,146Z" transform="translate(61.359 1.992)"/><rect width="44.79" height="69.783" fill="#24285b" transform="translate(455.984 203.498)"/><path d="M436.543,153.146s-13.567,33.7,11.114,76.376,38.1,65.7-4.936,64.863-43.851-80.717-43.851-80.717H366.436l3.876,65.957,20.108,3.216,32.8,69.237,69.653,5.917,25.559-34.12,13.537-59.461L477,162.376Z" opacity=".08" transform="translate(71.197 8.867)"/><path fill="#f4a28c" d="M488.288,159.424s46.486,25.212,47.516,130.305-78.466,74.446-129.948-5.467c0,0-30.95-31.74-16.989-45.021s29.951,31.772,29.951,31.772,50.3,40.97,70.773,32.512S379.963,148.394,488.288,159.424Z" transform="translate(81.2 12.43)"/><path fill="#ffd200" d="M414.671,118.575a106.055,106.055,0,0,1,3.967,40.23c-2.271,21.643-6.329,56.245,35.039,59.525s37.128-19.1,33.645-36.21S446.53,163.726,449.1,127.13,427.179,83.78,405.738,84.584,370.548,119.412,414.671,118.575Z" transform="translate(81.379 -34.128)"/><path fill="#24285b" d="M379.216,273.2l-12.78,84.544H506.65l-13.719-74.9Z" transform="translate(71.197 84.083)"/><ellipse cx="78.859" cy="83.74" fill="#24285b" rx="78.859" ry="83.74" transform="translate(214.289 0)"/><ellipse cx="78.223" cy="83.065" fill="#24285b" rx="78.223" ry="83.065" transform="translate(689.17 56.438)"/><ellipse cx="80.101" cy="85.059" fill="#24285b" rx="80.101" ry="85.059" transform="translate(720.423 339.045)"/><ellipse cx="85.37" cy="90.654" fill="#24285b" rx="85.37" ry="90.654" transform="translate(112.05 300.873)"/><path fill="#2b2d42" d="M287.584,442.786S262.66,435.55,257.3,410.917c0,0,38.612-8.3,39.732,34.056Z" opacity=".58" transform="translate(13.165 169.958)"/><path fill="#2b2d42" d="M281.983,450.425s-17.413-29.232-2.09-56.566c0,0,29.375,19.81,16.323,56.631Z" opacity=".73" transform="translate(21.825 159.682)"/><path fill="#2b2d42" d="M281.994,442.8s9.085-30.872,37.037-36.725c0,0,5.209,20.035-18.17,36.821Z" transform="translate(26.296 167.337)"/><path fill="#24285b" d="M270.191,428.22l5.057,36.725,31.828.129,4.694-36.661Z" transform="translate(20.02 181.211)"/><rect width="83.493" height="65.764" fill="#fff" transform="translate(728.358 105.511)"/><path fill="#2b2d42" d="M556.237,118.389,598,166.208l41.761-47.819Z" transform="translate(172.12 -12.91)"/><rect width="72.802" height="54.766" fill="#ffd200" transform="translate(766.212 398.763)"/><path fill="#fff" d="M597.223,307.123v28.331l29.042-14.632Z" transform="translate(193.913 105.339)"/><ellipse cx="10.387" cy="11.03" fill="#ffd200" rx="10.387" ry="11.03" transform="translate(312.348 68.594)"/><rect width="30.859" height="28.846" fill="#ffd200" transform="translate(254.445 66.664)"/><path fill="#fff" d="M266.909,105.872c16.753-1.537,31.281-12.915,37.613-29.457v81.907s-12.538-23.6-37.613-23.6Z" transform="translate(18.275 -39.208)"/><path fill="#ffd200" d="M256.9,112.26l8.692,27.881H279.89l-7.571-27.881Z" transform="translate(12.955 -16.75)"/><rect width="92.063" height="77.727" fill="#2b2d42" transform="translate(150.874 353.516)"/><path fill="#fff" d="M179.224,339.158l29.224-53.19,16.808,34.506L242.972,293.4l28.315,45.761Z" opacity=".85" transform="translate(-28.35 92.085)"/><ellipse cx="6.814" cy="7.236" fill="#fff" rx="6.814" ry="7.236" transform="translate(192.272 368.598)"/></g></g></svg>