<svg xmlns="http://www.w3.org/2000/svg" xmlns:xlink="http://www.w3.org/1999/xlink" width="1111" height="747" viewBox="0 0 1111 747"><defs><clipPath id="a"><rect width="1111" height="747" fill="#fff" stroke="#707070" stroke-width="1"/></clipPath></defs><g clip-path="url(#a)"><g transform="translate(128.941 -0.55)"><rect width="538.523" height="374.675" transform="translate(148.816 79.948) rotate(-0.15)" fill="#24285b"/><path d="M291.1,228.013,271,367.24l136.419-.36-31.69-139.1Z" transform="translate(87.074 183.308)" fill="#c9c9c9"/><ellipse cx="426.293" cy="100.168" rx="426.293" ry="100.168" transform="translate(0 546.55) rotate(-0.15)" fill="#e6e6e6" opacity="0.24"/><rect width="191.878" height="44.704" transform="translate(326.912 526.192) rotate(-0.15)" fill="#e6e6e6"/><ellipse cx="9.412" cy="10.08" rx="9.412" ry="10.08" transform="translate(183.268 107.143)" fill="#fff"/><ellipse cx="9.412" cy="10.08" rx="9.412" ry="10.08" transform="translate(211.322 107.078)" fill="#2b2d42"/><ellipse cx="9.412" cy="10.08" rx="9.412" ry="10.08" transform="translate(237.726 107.012)" fill="#ffd200"/><rect width="538.576" height="72.23" transform="translate(149.556 382.39) rotate(-0.15)" fill="#e6e6e6"/><ellipse cx="18.397" cy="19.703" rx="18.397" ry="19.703" transform="translate(406.324 398.132)" fill="#a5a5a5"/><rect width="169.734" height="150.651" transform="translate(570.929 0.445) rotate(-0.15)" fill="#ffd200"/><path d="M595.173,316.894l-169.851.458-17.847.033-169.851.458L196.428,435.175l211.321-.589,17.847-.033,211.352-.589Z" transform="translate(8.079 290.732)" fill="#e6e6e6"/><path d="M475.824,325.872l-89.754.229-13.569.066-137.03.36-23.195,78.188,160.408-.425,13.568-.033,116.066-.327Z" transform="translate(24.868 301.555)" fill="#c9c9c9"/><path d="M349.14,325.932l28.665,78.057,70.135-.2-30.1-78.025Z" transform="translate(169.858 301.43)" fill="#c9c9c9" opacity="0.42"/><path d="M196.428,371.186l15.188,21.732L619.162,391.8l17.786-21.83Z" transform="translate(8.079 354.722)" fill="#c9c9c9"/><rect width="29.914" height="25.294" transform="translate(599.515 92.757) rotate(-0.15)" fill="#fff"/><rect width="29.911" height="40.349" transform="translate(642.506 77.614) rotate(-0.15)" fill="#fff"/><rect width="29.907" height="64.371" transform="translate(684.069 53.475) rotate(-0.15)" fill="#fff"/><path d="M394.46,107.35,413.346,79.5l28.543,7.429L472.265,54.3" transform="translate(217.868 -25.833)" fill="none" stroke="#24285b" stroke-linecap="round" stroke-linejoin="round" stroke-width="2.968"/><path d="M428.887,55.421l8.4-2.029-.825,9.2" transform="translate(254.339 -26.925)" fill="none" stroke="#24285b" stroke-linecap="round" stroke-linejoin="round" stroke-width="2.968"/><rect width="241.298" height="20.149" transform="translate(288.175 106.853) rotate(-0.15)" fill="#fff"/><rect width="35.996" height="20.187" transform="translate(493.444 106.245) rotate(-0.15)" fill="#2b2d42"/><rect width="133.19" height="120.187" transform="translate(192.862 183.05) rotate(-0.15)" fill="#2b2d42"/><path d="M190.908,220.406l36.641-75.93,30.865,57.013,27.84-36.427,37.864,54.984Z" transform="translate(2.231 82.879)" fill="#fff" opacity="0.52"/><ellipse cx="13.355" cy="14.302" rx="13.355" ry="14.302" transform="translate(250.347 208.438)" fill="#fff"/><rect width="58.031" height="13.997" transform="translate(230.659 318.179) rotate(-0.15)" fill="#fff" opacity="0.23"/><rect width="297.044" height="167.973" transform="translate(352.872 182.634) rotate(-0.15)" fill="#fff" opacity="0.06"/><rect width="142.284" height="14.636" transform="translate(369.413 198.461) rotate(-0.15)" fill="#2b2d42"/><rect width="142.284" height="14.636" transform="translate(369.679 319.687) rotate(-0.15)" fill="#2b2d42"/><rect width="257.098" height="14.615" transform="translate(369.462 231.092) rotate(-0.15)" fill="#fff"/><rect width="257.098" height="14.615" transform="translate(369.529 258.387) rotate(-0.15)" fill="#fff" opacity="0.65"/><rect width="257.098" height="14.615" transform="translate(369.595 285.486) rotate(-0.15)" fill="#fff" opacity="0.23"/><rect width="190.265" height="183.965" transform="translate(53.689 318.773) rotate(-0.15)" fill="#e6e6e6"/><rect width="190.272" height="140.37" transform="translate(53.765 362.334) rotate(-0.15)" fill="#f2f2f2"/><ellipse cx="7.487" cy="8.018" rx="7.487" ry="8.018" transform="translate(67.691 332.675)" fill="#24285b"/><ellipse cx="7.487" cy="8.018" rx="7.487" ry="8.018" transform="translate(90 332.609)" fill="#2b2d42"/><ellipse cx="7.487" cy="8.018" rx="7.487" ry="8.018" transform="translate(111.025 332.544)" fill="#ffd200"/><path d="M200.866,218.778a16.325,16.325,0,0,0-13.174-1.827,17.549,17.549,0,0,0-10.51,8.7L147.57,280.929a19.731,19.731,0,0,0-.285,18.892,16.823,16.823,0,0,0,30.386-.4l29.612-55.278C212.048,235.24,209.175,223.887,200.866,218.778Z" transform="translate(-46.386 169.47)" fill="#2b2d42"/><path d="M200.866,218.778a16.325,16.325,0,0,0-13.174-1.827,17.549,17.549,0,0,0-10.51,8.7L147.57,280.929a19.731,19.731,0,0,0-.285,18.892,16.823,16.823,0,0,0,30.386-.4l29.612-55.278C212.048,235.24,209.175,223.887,200.866,218.778Z" transform="translate(-46.386 169.47)" fill="#fff" opacity="0.46"/><path d="M179.26,255.059c-2.069-8.09-8.948-13.688-16.78-13.656s-14.67,5.688-16.68,13.8,1.309,16.65,8.095,20.839a16.4,16.4,0,0,0,19.244-1.391,19.315,19.315,0,0,0,6.121-19.588Z" transform="translate(-46.171 199.726)" fill="#a0ed83"/><path d="M222.107,280.951,192.22,225.837a16.825,16.825,0,0,0-30.421-.265,19.729,19.729,0,0,0,.411,18.921L192.1,299.639c4.818,8.876,15.443,11.887,23.73,6.727s11.1-16.54,6.28-25.415Z" transform="translate(-30.955 169.186)" fill="#2b2d42"/><path d="M179.26,255.059c-2.069-8.09-8.948-13.688-16.78-13.656s-14.67,5.688-16.68,13.8,1.309,16.65,8.095,20.839a16.4,16.4,0,0,0,19.244-1.391,19.315,19.315,0,0,0,6.121-19.588Z" transform="translate(-46.171 199.726)" fill="#2b2d42"/><path d="M179.26,255.059c-2.069-8.09-8.948-13.688-16.78-13.656s-14.67,5.688-16.68,13.8,1.309,16.65,8.095,20.839a16.4,16.4,0,0,0,19.244-1.391,19.315,19.315,0,0,0,6.121-19.588Z" transform="translate(-46.171 199.726)" opacity="0.06"/><rect width="28.55" height="136.211" transform="translate(243.984 318.239) rotate(-0.15)" opacity="0.06"/><rect width="87.916" height="30.847" transform="translate(599.657 151.046) rotate(-0.15)" opacity="0.06"/><path d="M417.876,291.413v19.113c0,8.673,22.645,15.611,50.454,15.481s50.363-7.266,50.332-15.939V290.955Z" transform="translate(242.675 259.462)" fill="#ffd200"/><path d="M417.921,301.86v19.146c0,8.673,22.645,15.579,50.454,15.448s50.363-7.233,50.332-15.906V301.4Z" transform="translate(242.722 272.056)" fill="#ffd200"/><path d="M417.921,301.86v19.146c0,8.673,22.645,15.579,50.454,15.448s50.363-7.233,50.332-15.906V301.4Z" transform="translate(242.722 272.056)" opacity="0.08"/><path d="M49.939,0c27.578-.008,49.933,6.945,49.93,15.531S77.509,31.084,49.93,31.092,0,24.147,0,15.561,22.361.008,49.939,0Z" transform="translate(661.487 557.755) rotate(-0.24)" fill="#ffd200"/><path d="M417.876,291.413v19.113c0,8.673,22.645,15.611,50.454,15.481s50.363-7.266,50.332-15.939V290.955Z" transform="translate(242.675 259.462)" opacity="0.08"/><path d="M419.612,281.041v19.113c0,8.673,22.645,15.612,50.454,15.481s50.363-7.266,50.332-15.939V280.583Z" transform="translate(244.514 246.958)" fill="#ffd200"/><path d="M417.787,270.594v19.113c0,8.673,22.645,15.611,50.454,15.481s50.363-7.266,50.332-15.939V270.136Z" transform="translate(242.58 234.364)" fill="#ffd200"/><path d="M49.939,0c27.578-.008,49.933,6.945,49.93,15.531S77.509,31.084,49.93,31.092,0,24.147,0,15.561,22.361.008,49.939,0Z" transform="translate(661.398 534.912) rotate(-0.24)" fill="#ffd200"/><path d="M419.612,281.041v19.113c0,8.673,22.645,15.612,50.454,15.481s50.363-7.266,50.332-15.939V280.583Z" transform="translate(244.514 246.958)" opacity="0.08"/><path d="M49.939,0c27.578-.008,49.933,6.945,49.93,15.531S77.509,31.084,49.93,31.092,0,24.147,0,15.561,22.361.008,49.939,0Z" transform="translate(664.946 512.248) rotate(-0.24)" fill="#ffd200"/><path d="M417.787,270.594v19.113c0,8.673,22.645,15.611,50.454,15.481s50.363-7.266,50.332-15.939V270.136Z" transform="translate(242.58 234.364)" opacity="0.08"/><ellipse cx="37.405" cy="40.06" rx="37.405" ry="40.06" transform="translate(625.101 532.122)" opacity="0.08"/><path d="M435.235,282.6s39.178,12.7,33.035,76.225c0,0-25.518.982-37.65-2.291C419.772,353.556,435.235,282.6,435.235,282.6Z" transform="translate(252.086 249.391)" opacity="0.08"/><path d="M50.4,0c27.831-.008,50.391,6.945,50.389,15.531S78.22,31.084,50.389,31.092,0,24.147,0,15.561,22.566.008,50.4,0Z" transform="translate(660.273 489.424) rotate(-0.24)" fill="#ffd200"/><ellipse cx="37.405" cy="40.06" rx="37.405" ry="40.06" transform="translate(625.101 532.122)" fill="#ffd200"/><ellipse cx="37.405" cy="40.06" rx="37.405" ry="40.06" transform="translate(625.101 532.122)" opacity="0.08"/><g transform="translate(623.268 520.045)" opacity="0.08"><ellipse cx="37.405" cy="40.06" rx="37.405" ry="40.06"/></g><ellipse cx="37.405" cy="40.06" rx="37.405" ry="40.06" transform="translate(623.268 520.045)" fill="#ffd200"/><path d="M425.327,285.824c1.039,0,1.375.393,1.375,1.538v2.389a10.476,10.476,0,0,1,8.5,6.84c.55,1.178.306,1.833-.917,2.422l-2.261,1.08c-1.039.556-1.559.295-2.17-.884a5.741,5.741,0,0,0-5.9-3.764c-3.912,0-5.684,1.244-5.684,4.058a3.583,3.583,0,0,0,3.056,3.273,27.091,27.091,0,0,0,3.606.72,20.434,20.434,0,0,1,6.112,1.244,8.993,8.993,0,0,1,2.72,1.571,9.879,9.879,0,0,1,2.445,6.906c0,5.368-3.331,9-9.168,9.819v2.586c0,1.113-.306,1.505-1.375,1.538h-2.536c-1.039,0-1.406-.393-1.436-1.538v-2.488a10.564,10.564,0,0,1-9.168-7.56,1.61,1.61,0,0,1,1.039-2.258l2.261-.884c1.131-.458,1.65-.164,2.17,1.08a6.1,6.1,0,0,0,6.112,4.124c4.248,0,6.356-1.473,6.326-4.353a2.973,2.973,0,0,0-1.986-3.044,14.1,14.1,0,0,0-4.553-.949,18.858,18.858,0,0,1-6.112-1.407,7.931,7.931,0,0,1-5.2-8.313c0-5.3,3.056-8.869,9.015-9.818v-2.422c0-1.113.367-1.505,1.436-1.538Z" transform="translate(236.843 253.237)" fill="#fff"/></g></g></svg>