<svg xmlns="http://www.w3.org/2000/svg" width="51.234" height="47" viewBox="0 0 51.234 47"><path d="M6.4,0A6.157,6.157,0,0,0,0,5.875v35.25A6.157,6.157,0,0,0,6.4,47H44.83a6.157,6.157,0,0,0,6.4-5.875V5.875A6.157,6.157,0,0,0,44.83,0Zm18.08,31.273a1.386,1.386,0,0,0,0,2.08,1.707,1.707,0,0,0,2.267,0l9.606-8.812a1.385,1.385,0,0,0,0-2.08l-9.606-8.812a1.707,1.707,0,0,0-2.267,0,1.386,1.386,0,0,0,0,2.08l6.874,6.3H16.011a1.474,1.474,0,1,0,0,2.938H31.358l-6.875,6.3Z" transform="translate(0)" fill="#fff" fill-rule="evenodd"/></svg>