<svg xmlns="http://www.w3.org/2000/svg" xmlns:xlink="http://www.w3.org/1999/xlink" width="74" height="72" viewBox="0 0 74 72"><defs><clipPath id="clip-path"><rect id="Rectángulo_86" width="74" height="72" fill="#2b2d42" stroke="#707070" stroke-width="1" data-name="Rectángulo 86" transform="translate(0.319 0.412)"/></clipPath></defs><g id="cotizar" clip-path="url(#clip-path)" transform="translate(-0.319 -0.412)"><g id="solicitud" transform="translate(1)"><path id="Trazado_120" fill="#2b2d42" d="M51.473,0H2.109A2.109,2.109,0,0,0,0,2.109V69.891A2.109,2.109,0,0,0,2.109,72H51.473a2.109,2.109,0,0,0,2.109-2.109V2.109A2.109,2.109,0,0,0,51.473,0ZM22.145,41.294,15.738,47.7a2.109,2.109,0,0,1-2.983,0l-3.02-3.02A2.109,2.109,0,1,1,12.718,41.7l1.528,1.528,4.916-4.916a2.109,2.109,0,1,1,2.983,2.983Zm0-12.8L15.738,34.9a2.109,2.109,0,0,1-2.983,0l-3.02-3.02A2.109,2.109,0,1,1,12.718,28.9l1.528,1.528,4.916-4.916A2.109,2.109,0,1,1,22.145,28.5Zm0-12.8-6.407,6.407a2.109,2.109,0,0,1-2.983,0l-3.02-3.02A2.109,2.109,0,1,1,12.718,16.1l1.528,1.528,4.916-4.916A2.109,2.109,0,1,1,22.145,15.7Zm20.1,43.389h-13.4a2.109,2.109,0,0,1,0-4.219h13.4a2.109,2.109,0,0,1,0,4.219Zm0-13.288h-13.4a2.109,2.109,0,0,1,0-4.219h13.4a2.109,2.109,0,0,1,0,4.219Zm0-12.8h-13.4a2.109,2.109,0,0,1,0-4.219h13.4a2.109,2.109,0,0,1,0,4.219Zm0-12.8h-13.4a2.109,2.109,0,1,1,0-4.219h13.4a2.109,2.109,0,1,1,0,4.219Z" data-name="Trazado 120"/><path id="Trazado_121" fill="#2b2d42" d="M72,7.159a7.159,7.159,0,0,0-14.319,0v6.187H72Z" data-name="Trazado 121"/><path id="Trazado_122" fill="#2b2d42" d="M57.807,58.17a2.109,2.109,0,0,0,.066,1.6l5.05,11a2.109,2.109,0,0,0,3.834,0l5.05-11a2.109,2.109,0,0,0,.066-1.6l-1.3-3.581H59.1Z" data-name="Trazado 122"/><path id="Trazado_123" fill="#2b2d42" d="M72,48.261v-30.7H57.681v30.7a2.109,2.109,0,0,0,2.109,2.109h10.1A2.109,2.109,0,0,0,72,48.261Z" data-name="Trazado 123"/></g></g></svg>