<svg xmlns="http://www.w3.org/2000/svg" xmlns:xlink="http://www.w3.org/1999/xlink" width="277" height="281" viewBox="0 0 277 281"><defs><clipPath id="clip-path"><rect id="Rectángulo_84" width="277" height="281" fill="#fff" stroke="#707070" stroke-width="1" data-name="Rectángulo 84" transform="translate(0.271)"/></clipPath><clipPath id="clip-path-2"><path id="Trazado_113" fill="#fff" d="M141.01,55.082H321.994V256.334H141.01Zm0,0" data-name="Trazado 113" transform="translate(-141.01 -55.082)"/></clipPath></defs><g id="logo" clip-path="url(#clip-path)" transform="translate(-0.271)"><g id="surface1" transform="translate(14.77)"><path id="Trazado_109" fill="#fff" d="M215.648,211.435a46.71,46.71,0,0,0,0-20.018,14.253,14.253,0,0,1,0,20.018Zm-20.06-10.01a14.022,14.022,0,0,1,4.107-10.009,46.672,46.672,0,0,0,0,20.018A14.031,14.031,0,0,1,195.589,201.425Zm12.083,13.357c-.993-.866-3.021-5.471-3.021-13.357s2.028-12.491,3.021-13.356c.989.865,3.021,5.47,3.021,13.356S208.661,213.916,207.671,214.782Zm0-33.51c-9.993,0-18.12,9.041-18.12,20.154s8.127,20.151,18.12,20.151,18.12-9.037,18.12-20.151-8.126-20.154-18.12-20.154" data-name="Trazado 109" transform="translate(-121.336 -93.95)"/><path id="Trazado_110" fill="#fff" d="M346.692,211.435a46.712,46.712,0,0,0,0-20.018,14.253,14.253,0,0,1,0,20.018Zm-20.056-10.01a14.01,14.01,0,0,1,4.106-10.009,46.712,46.712,0,0,0,0,20.018A14.019,14.019,0,0,1,326.636,201.425Zm12.079,13.357c-.989-.866-3.021-5.471-3.021-13.357s2.032-12.491,3.021-13.356c.993.865,3.021,5.47,3.021,13.356S339.708,213.916,338.715,214.782Zm0-33.51c-9.991,0-18.12,9.041-18.12,20.154s8.13,20.151,18.12,20.151,18.124-9.037,18.124-20.151-8.13-20.154-18.124-20.154" data-name="Trazado 110" transform="translate(-170.832 -93.95)"/><path id="Trazado_111" fill="#fff" d="M269.822,251.087c3.324,0,6.037,3.017,6.037,6.718s-2.713,6.718-6.037,6.718-6.042-3.017-6.042-6.718S266.494,251.087,269.822,251.087Zm5.7,18.486A13.658,13.658,0,0,0,281.9,257.8c0-7.413-5.417-13.436-12.079-13.436s-12.083,6.023-12.083,13.436a13.654,13.654,0,0,0,6.384,11.768c-8.365,7.242-20.848,5.1-20.99,5.063l-.989,6.626a32.291,32.291,0,0,0,5.58.433c5.92,0,15.3-1.35,22.1-8.751,6.794,7.4,16.174,8.751,22.095,8.751a32.291,32.291,0,0,0,5.58-.433l-.989-6.615c-.143.028-12.611,2.22-20.988-5.074" data-name="Trazado 111" transform="translate(-141.2 -113.386)"/><g id="Grupo_64" clip-path="url(#clip-path-2)" data-name="Grupo 64" transform="translate(38.009 0)"><path id="Trazado_112" fill="#fff" d="M316.191,155.839a102.254,102.254,0,0,1-7.433,38.465l-35.252,5.22.8,6.667,31.181-4.63a95.177,95.177,0,0,1-6.927,11.634L274.309,209.6l-.8,6.667,20.47,3.03a90.008,90.008,0,0,1-7.492,8.016l-14.335-7.349-2.525,6.09,11.536,5.928a77.521,77.521,0,0,1-99.078,0l11.536-5.928-2.525-6.09-14.332,7.349a89.5,89.5,0,0,1-7.494-8.016l20.47-3.03-.8-6.667L164.68,213.2a95.3,95.3,0,0,1-6.928-11.634l31.186,4.63.8-6.667-35.263-5.22a102.447,102.447,0,0,1-7.423-38.465V68.53c0-.067.026-.131.026-.211,5.791,3.359,15.821,24.089,21.366,38.465l5.545-2.648c-2.335-6.063-13.8-34.769-23.751-41.5A5.5,5.5,0,0,1,153.1,61.8c1.593,0,2.939,1.219,5.192,3.776a24.459,24.459,0,0,1,2.692,3.74l21.956,37.627,2.053-.524a29.47,29.47,0,0,1,7.363-.957H198.4v16.791c0,5.563,4.057,10.077,9.058,10.077s9.062-4.514,9.062-10.077V105.462h6.042v23.508c0,5.563,4.059,10.077,9.062,10.077s9.058-4.514,9.058-10.077V105.462h6.041v16.791c0,5.563,4.06,10.077,9.062,10.077s9.059-4.514,9.059-10.077V105.462h4.048a29.47,29.47,0,0,1,7.363.957l1.971.5L302.7,68.45a17.121,17.121,0,0,1,1.849-2.426c2.867-3.1,4.909-4.224,5.595-4.224a5.5,5.5,0,0,1,2.9.865c-9.958,6.8-21.452,35.948-23.8,42.1l5.567,2.624c5.545-14.575,15.564-35.567,21.366-39.041,0,.064.014.115.014.183ZM210.478,105.462v16.791a3.038,3.038,0,1,1-6.041,0V105.462Zm24.162,0v23.508a3.036,3.036,0,1,1-6.038,0V105.462Zm24.165,0v16.791a3.038,3.038,0,1,1-6.041,0V105.462Zm62.081-43.1c-.036-.028-.06-.028-.1-.052a11.973,11.973,0,0,0-10.651-7.23c-2.75,0-6.041,2.061-9.8,6.126a23.639,23.639,0,0,0-2.575,3.359L275.594,99.412a34.715,34.715,0,0,0-6.7-.667H192.358a34.8,34.8,0,0,0-6.62.655L166.047,65.655a30.227,30.227,0,0,0-3.431-4.772c-2.15-2.454-5.1-5.8-9.513-5.8a11.973,11.973,0,0,0-10.651,7.23c-.036.024-.061.024-.1.052l.036.064a14.513,14.513,0,0,0-1.382,6.1v87.309a109.934,109.934,0,0,0,6.513,37.429l-3.089-.456-.8,6.663,6.784,1a103.985,103.985,0,0,0,7.419,13.749l-14.2,2.1.8,6.663,17.66-2.621a96.06,96.06,0,0,0,8.648,10.033l-18.909,9.724,2.525,6.086,21.505-11.033c15.4,13.408,34.749,21.424,55.761,21.424s40.361-8.017,55.758-21.424L308.886,246.2l2.528-6.086L292.5,230.395a95.955,95.955,0,0,0,8.648-10.033l17.66,2.621.8-6.663-14.2-2.1a104,104,0,0,0,7.42-13.749l6.784-1-.8-6.663-3.089.456a109.934,109.934,0,0,0,6.513-37.429V68.53a14.509,14.509,0,0,0-1.382-6.1l.036-.064" data-name="Trazado 112" transform="translate(-141.01 -55.082)"/></g><g id="Grupo_71" data-name="Grupo 71" transform="translate(0 227.481)"><g id="Grupo_65" data-name="Grupo 65"><path id="Trazado_114" fill="#fff" d="M43.132-41.33q-.557,8.5-5.656,13.388T24.065-23.05q-9.126,0-14.354-6.829T4.5-48.6v-3.224A34.722,34.722,0,0,1,6.9-65.216a19.652,19.652,0,0,1,6.884-8.894,17.865,17.865,0,0,1,10.412-3.1q8.194,0,13.211,4.892t5.784,13.722H33.434q-.359-5.11-2.557-7.4t-6.684-2.3a8.048,8.048,0,0,0-7.312,3.891q-2.432,3.895-2.485,12.07v3.986q0,8.528,2.328,12.483a7.9,7.9,0,0,0,7.341,3.939q4.51,0,6.741-2.287t2.556-7.115Zm0,0" data-name="Trazado 114" transform="translate(-4.498 77.207)"/></g><g id="Grupo_66" data-name="Grupo 66" transform="translate(41.041 0.731)"><path id="Trazado_115" fill="#fff" d="M31.117-34.319H14.007L10.75-23.456H.367l17.638-52.7h9.055L44.8-23.456H34.416ZM16.635-43.1H28.489L22.533-62.826Zm0,0" data-name="Trazado 115" transform="translate(-0.367 76.151)"/></g><g id="Grupo_67" data-name="Grupo 67" transform="translate(86.961 0.731)"><path id="Trazado_116" fill="#fff" d="M40.693-67.353H26.168v43.9H16.414v-43.9H2.089v-8.8h38.6Zm0,0" data-name="Trazado 116" transform="translate(-2.089 76.151)"/></g><g id="Grupo_68" data-name="Grupo 68" transform="translate(129.268 0.731)"><path id="Trazado_117" fill="#fff" d="M16.021-32.175H39.915v8.719H3.81v-6.369L27.247-67.353H3.853v-8.8H39.387v6.226Zm0,0" data-name="Trazado 117" transform="translate(-3.81 76.151)"/></g><g id="Grupo_69" data-name="Grupo 69" transform="translate(171.514 0.731)"><path id="Trazado_118" fill="#fff" d="M35.3-46.294H16.562v14.119H38.557v8.719H6.793v-52.7H38.5v8.8H16.562V-54.79H35.3Zm0,0" data-name="Trazado 118" transform="translate(-6.793 76.151)"/></g><g id="Grupo_70" data-name="Grupo 70" transform="translate(209.007 0.731)"><path id="Trazado_119" fill="#fff" d="M45.327-23.456H35.572l-19.01-34.67v34.67H6.793v-52.7h9.769L35.6-41.4V-76.151h9.726Zm0,0" data-name="Trazado 119" transform="translate(-6.793 76.151)"/></g></g></g></g></svg>